<svg xmlns="http://www.w3.org/2000/svg" viewBox="0 0 32 32" shape-rendering="crispEdges">
  <style>
    .red  { fill: #B82626; }
    .navy { fill: #042347; }
    @media (prefers-color-scheme: dark) {
      .navy { fill: #8FB3D9; }
    }
  </style>
  <g class="red">
    <rect x="11" y="0" width="2" height="1"/>
    <rect x="15" y="0" width="2" height="1"/>
    <rect x="19" y="0" width="2" height="1"/>
    <rect x="11" y="1" width="3" height="1"/>
    <rect x="15" y="1" width="2" height="1"/>
    <rect x="18" y="1" width="3" height="1"/>
    <rect x="12" y="2" width="8" height="1"/>
    <rect x="13" y="3" width="6" height="1"/>
    <rect x="9" y="4" width="14" height="1"/>
    <rect x="9" y="5" width="14" height="1"/>
    <rect x="15" y="6" width="2" height="1"/>
    <rect x="15" y="7" width="2" height="1"/>
    <rect x="8" y="8" width="5" height="1"/>
    <rect x="15" y="8" width="2" height="1"/>
    <rect x="19" y="8" width="5" height="1"/>
    <rect x="7" y="9" width="7" height="1"/>
    <rect x="15" y="9" width="2" height="1"/>
    <rect x="18" y="9" width="7" height="1"/>
    <rect x="7" y="10" width="2" height="1"/>
    <rect x="12" y="10" width="8" height="1"/>
    <rect x="23" y="10" width="2" height="1"/>
    <rect x="28" y="10" width="2" height="1"/>
    <rect x="7" y="11" width="2" height="1"/>
    <rect x="13" y="11" width="6" height="1"/>
    <rect x="23" y="11" width="2" height="1"/>
    <rect x="28" y="11" width="3" height="1"/>
    <rect x="7" y="12" width="4" height="1"/>
    <rect x="14" y="12" width="4" height="1"/>
    <rect x="21" y="12" width="4" height="1"/>
    <rect x="29" y="12" width="3" height="1"/>
    <rect x="8" y="13" width="3" height="1"/>
    <rect x="15" y="13" width="2" height="1"/>
    <rect x="21" y="13" width="3" height="1"/>
    <rect x="30" y="13" width="2" height="1"/>
    <rect x="15" y="14" width="2" height="1"/>
    <rect x="29" y="14" width="3" height="1"/>
    <rect x="15" y="15" width="3" height="1"/>
    <rect x="28" y="15" width="3" height="1"/>
    <rect x="15" y="16" width="4" height="1"/>
    <rect x="28" y="16" width="2" height="1"/>
    <rect x="17" y="17" width="15" height="1"/>
    <rect x="17" y="18" width="15" height="1"/>
    <rect x="17" y="19" width="2" height="1"/>
    <rect x="28" y="19" width="2" height="1"/>
    <rect x="17" y="20" width="1" height="1"/>
    <rect x="28" y="20" width="3" height="1"/>
    <rect x="29" y="21" width="3" height="1"/>
    <rect x="30" y="22" width="2" height="1"/>
    <rect x="29" y="23" width="3" height="1"/>
    <rect x="28" y="24" width="3" height="1"/>
    <rect x="28" y="25" width="2" height="1"/>
  </g>
  <g class="navy">
    <rect x="2" y="10" width="2" height="1"/>
    <rect x="1" y="11" width="3" height="1"/>
    <rect x="0" y="12" width="3" height="1"/>
    <rect x="0" y="13" width="2" height="1"/>
    <rect x="0" y="14" width="3" height="1"/>
    <rect x="1" y="15" width="3" height="1"/>
    <rect x="14" y="15" width="1" height="1"/>
    <rect x="2" y="16" width="2" height="1"/>
    <rect x="13" y="16" width="2" height="1"/>
    <rect x="0" y="17" width="15" height="1"/>
    <rect x="0" y="18" width="15" height="1"/>
    <rect x="2" y="19" width="2" height="1"/>
    <rect x="13" y="19" width="4" height="1"/>
    <rect x="1" y="20" width="3" height="1"/>
    <rect x="14" y="20" width="3" height="1"/>
    <rect x="0" y="21" width="3" height="1"/>
    <rect x="15" y="21" width="2" height="1"/>
    <rect x="0" y="22" width="2" height="1"/>
    <rect x="8" y="22" width="5" height="1"/>
    <rect x="15" y="22" width="2" height="1"/>
    <rect x="19" y="22" width="5" height="1"/>
    <rect x="0" y="23" width="3" height="1"/>
    <rect x="7" y="23" width="7" height="1"/>
    <rect x="15" y="23" width="2" height="1"/>
    <rect x="18" y="23" width="7" height="1"/>
    <rect x="1" y="24" width="3" height="1"/>
    <rect x="7" y="24" width="2" height="1"/>
    <rect x="12" y="24" width="8" height="1"/>
    <rect x="23" y="24" width="2" height="1"/>
    <rect x="2" y="25" width="2" height="1"/>
    <rect x="7" y="25" width="2" height="1"/>
    <rect x="13" y="25" width="6" height="1"/>
    <rect x="23" y="25" width="2" height="1"/>
    <rect x="7" y="26" width="4" height="1"/>
    <rect x="14" y="26" width="4" height="1"/>
    <rect x="21" y="26" width="4" height="1"/>
    <rect x="8" y="27" width="3" height="1"/>
    <rect x="15" y="27" width="2" height="1"/>
    <rect x="21" y="27" width="3" height="1"/>
    <rect x="15" y="28" width="2" height="1"/>
    <rect x="15" y="29" width="2" height="1"/>
    <rect x="15" y="30" width="2" height="1"/>
    <rect x="15" y="31" width="2" height="1"/>
  </g>
</svg>
